<svg fill="none" viewBox="0 0 313 84" xmlns="http://www.w3.org/2000/svg"><path d="m10.608 84c-1.19467 0-1.87733-.64-2.048-1.92l-8.192-80.00001c-.085333-1.279995.469334-1.919994 1.664-1.919994h19.2c1.1947 0 1.8347.639999 1.92 1.919994l1.92 32.25601c.256 4.4373.384 8.8747.384 13.312 0 4.352-.128 8.7467-.384 13.184h.384c1.28-3.072 2.6027-6.144 3.968-9.216 1.3653-3.1573 2.7733-6.2293 4.224-9.216l11.264-22.912-2.56-14.97601c-.256-1.28.2987-1.91999 1.664-1.91999h19.072c1.1947 0 1.8347.63999 1.92 1.91999l3.84 36.35201c.3413 3.328.5547 6.656.64 9.984.1707 3.328.2987 6.656.384 9.984h.256c.8533-3.072 1.8347-6.6987 2.944-10.88s2.304-8.3627 3.584-12.544 2.4747-7.7653 3.584-10.752l9.216-24.57601c.4267-1.279995 1.28-1.919994 2.56-1.919994h20.48c1.109 0 1.408.639999.896 1.919994l-32.64 80.00001c-.5973 1.28-1.3653 1.92-2.304 1.92h-21.76c-1.1947 0-1.8773-.64-2.048-1.92l-2.048-19.072c-.3413-3.2427-.6827-6.4853-1.024-9.728-.256-3.2427-.512-6.4427-.768-9.6h-.384c-1.3653 3.2427-2.7307 6.4853-4.096 9.728-1.28 3.1573-2.688 6.3573-4.224 9.6l-8.832 19.072c-.5973 1.28-1.3653 1.92-2.304 1.92zm84.662 0c-.512 0-.8533-.1707-1.024-.512-.1707-.4267-.128-.896.128-1.408l38.4-80.00001c.597-1.279995 1.365-1.919994 2.304-1.919994h25.344c1.109 0 1.792.639999 2.048 1.919994l12.928 80.00001c.256 1.28-.299 1.92-1.664 1.92h-21.376c-1.109 0-1.749-.64-1.92-1.92l-4.224-42.88c-.341-3.2427-.64-6.4427-.896-9.6-.171-3.2427-.299-6.4427-.384-9.6h-.384c-1.024 3.2427-2.176 6.4853-3.456 9.728-1.195 3.2427-2.475 6.4853-3.84 9.728l-17.536 42.624c-.597 1.28-1.451 1.92-2.56 1.92zm25.984-13.696 6.272-18.432h23.68l.768 18.432zm64.259 13.696c-1.195 0-1.707-.64-1.536-1.92l12.672-80.00001c.171-1.279995.853-1.919994 2.048-1.919994h19.328c1.365 0 1.963.639999 1.792 1.919994l-9.728 61.44001h30.208c1.28 0 1.835.5973 1.664 1.792l-2.56 16.768c-.171 1.28-.811 1.92-1.92 1.92zm70.938 0c-1.365 0-1.963-.64-1.792-1.92l9.728-61.44h-19.712c-.597 0-1.067-.1707-1.408-.512s-.469-.8107-.384-1.408l2.688-16.64001c.171-1.279995.853-1.919994 2.048-1.919994h62.976c.597 0 1.067.170667 1.408.512001.427.256002.555.725333.384 1.407993l-2.688 16.64001c-.171 1.28-.853 1.92-2.048 1.92h-19.84l-9.984 61.44c-.171 1.28-.811 1.92-1.92 1.92z" fill="#4836bf"/></svg>
